<svg version="1.1" viewBox="0 0 314 314" xmlns="http://www.w3.org/2000/svg" xmlns:xlink="http://www.w3.org/1999/xlink"><defs><linearGradient id="linearGradient13485" x1="294" x2="606" y1="270" y2="436" gradientTransform="translate(-224 178)" gradientUnits="userSpaceOnUse" xlink:href="#linearGradient13850"/><linearGradient id="linearGradient13850" x1="255" x2="511" y1="244" y2="375" gradientTransform="translate(-224 184)" gradientUnits="userSpaceOnUse"><stop stop-color="#006649" offset="0"/><stop stop-color="#dbe3e2" offset="1"/></linearGradient><linearGradient id="linearGradient1306" x1="165" x2="362" y1="413" y2="558" gradientUnits="userSpaceOnUse" xlink:href="#linearGradient13850"/></defs><g transform="matrix(1 0 0 1 -.168 -297)"><title>Layer 1</title><g transform="translate(0 8)"><path d="m186 549" opacity="0"/><path d="m185 551" opacity="0"/><path d="m193 552" opacity="0"/><path d="m267 510" opacity="0"/><path d="m197 487c0-20.6 13.7-21.2 13.7-21.2" opacity="0"/><path d="m212 466" opacity="0"/><path d="m212 466" opacity="0"/><path d="m212 466c-1.14-42.4 31.5-48.1 40.6-48.1" opacity="0"/></g><path d="m102 393c-17.3-6.65-55.5 18.9-43.1 61.7-63-13.7-91.4 101-0.926 105h135v-51.8c0.353-20.3 7.75-27 18.7-32.6 1.26-40.9 31.8-46 40.1-48.5v-21.6c0-48.9-38.2-66.7-76.8-67.5-48.1-0.025-69.3 25.5-73.3 55.4zm82.6-39-3.98 8.77c-16-6.99-49.4 2.31-52.2 28.6l-8.1-4.8c5.42-26 34.2-39.2 64.3-32.6z" fill="url(#linearGradient13850)"/><a fill="none"/><path d="m127 387c-1.24-0.74-2.25-1.43-2.25-1.54 0-0.107 0.741-2.31 1.65-4.9 6.29-18 18.7-30.3 35.1-34.8 6.28-1.73 15.5-2.48 21.9-1.77 2.96 0.329 5.49 0.713 5.63 0.855 0.141 0.142-0.0392 1.25-0.401 2.46l-0.659 2.2-3.24-0.416c-1.78-0.229-5.87-0.382-9.1-0.339-21.4 0.283-37.4 12.9-44.5 35.1-0.654 2.05-1.33 3.91-1.51 4.12-0.178 0.21-1.34-0.223-2.58-0.964z" fill-opacity="0" opacity=".962"/><path d="m224 484c-9.42 0-17 7.6-17 17v61.2c0 9.44 7.59 17 17 17h73.1c9.42 0 17-7.6 17-17v-61.2c0-9.44-7.59-17-17-17zm36.6 33.4c8.28 0 15 6.58 15 14.7s-6.72 14.7-15 14.7-15-6.58-15-14.7 6.72-14.7 15-14.7z" fill="url(#linearGradient13485)" opacity=".962"/><path d="m296 484-13 0.025 4.3e-4 -4.4c-1.14-37.7-44.9-37.2-45 0l-4.3e-4 4.4-13 3.7e-4 4.3e-4 -4.4c0.594-54.6 71.2-53.5 71 0z" fill="url(#linearGradient1306)"/></g></svg>
