<?xml version="1.0" encoding="UTF-8"?>
<svg version="1.1" viewBox="0 0 314 314" xmlns="http://www.w3.org/2000/svg" xmlns:xlink="http://www.w3.org/1999/xlink"><defs><linearGradient id="linearGradient13483"><stop stop-color="#6702ac" offset="0"/><stop stop-color="#f3ffff" offset="1"/></linearGradient><linearGradient id="linearGradient13485" x1="239" x2="657" y1="191" y2="459" gradientTransform="matrix(1 0 0 1 -224 -110)" gradientUnits="userSpaceOnUse" xlink:href="#linearGradient13483"/><linearGradient id="linearGradient13487" x1="330" x2="635" y1="157" y2="451" gradientTransform="matrix(1 0 0 1 -224 176)" gradientUnits="userSpaceOnUse" xlink:href="#linearGradient13483"/><linearGradient id="linearGradient13850" x1="231" x2="508" y1="247" y2="395" gradientTransform="matrix(1 0 0 1 -224 -110)" gradientUnits="userSpaceOnUse"><stop stop-color="#6702ac" offset="0"/><stop stop-color="#751eb1" offset=".302"/><stop stop-color="#8133b5" offset=".417"/><stop stop-color="#f3ffff" offset="1"/></linearGradient></defs><g transform="translate(0,-286)"><title>Layer 1</title><g><path d="m186 549" opacity="0"/><path d="m185 551" opacity="0"/><path d="m193 552" opacity="0"/><path d="m267 510" opacity="0"/><path d="m197 487c0-20.6 13.7-21.2 13.7-21.2" opacity="0"/><path d="m212 466" opacity="0"/><path d="m212 466" opacity="0"/><path d="m212 466c-1.14-42.4 31.5-48.1 40.6-48.1" opacity="0"/></g><path transform="translate(0,286)" d="m174 33.5c-34-0.654-67.3 19.8-72.2 65.4-17.3-6.65-55.5 18.9-43.1 61.7-63-13.7-91.4 101-0.926 105h136v-58.2c0-29.2 18-33 18-33 4.93-43.1 40.1-43.3 40.1-43.3v-20.1c0-48.9-39.5-76.7-78.1-77.5zm-0.834 18.4c9.9 0.0201 17.2 2.35 17.2 2.35l-2.12 6.25s-45.3-15.7-58.2 35.4l-6.33-3.39c9.2-34.2 32.9-40.6 49.4-40.6z" fill="url(#linearGradient13850)"/><a fill="none"/><path d="m127 379c-1.24-0.74-2.25-1.43-2.25-1.54 0-0.107 0.741-2.31 1.65-4.9 6.29-18 18.7-30.3 35.1-34.8 6.28-1.73 15.5-2.48 21.9-1.77 2.96 0.329 5.49 0.713 5.63 0.855 0.141 0.142-0.0392 1.25-0.401 2.46l-0.659 2.2-3.24-0.416c-1.78-0.229-5.87-0.382-9.1-0.339-21.4 0.283-37.4 12.9-44.5 35.1-0.654 2.05-1.33 3.91-1.51 4.12-0.178 0.21-1.34-0.223-2.58-0.964z" fill-opacity="0" opacity=".962"/><path transform="translate(0,286)" d="m224 186c-9.42 0-17 7.6-17 17v61.2c0 9.44 7.59 17 17 17h73.1c9.42 0 17-7.6 17-17v-61.2c0-9.44-7.59-17-17-17h-73.1zm36.6 33.4a15 14.7 0 0 1 15 14.7 15 14.7 0 0 1-15 14.7 15 14.7 0 0 1-15-14.7 15 14.7 0 0 1 15-14.7z" fill="url(#linearGradient13485)" opacity=".962"/><path d="m288 472c-0.695-47.1-54.8-46.5-54.8 0h-8.39c0-57.2 71.2-58 72.1 0z" fill="url(#linearGradient13487)"/></g></svg>
