<svg width="800px" height="800px" version="1.1" viewBox="0 -6.5 38 38" xmlns="http://www.w3.org/2000/svg"><g transform="translate(-211 -1910)"><g transform="translate(50 1871)"><path id="right-arrow" d="m188 39.6 10.5 10.4 0.0879 0.0816c0.352 0.349 0.556 0.809 0.587 1.35l-0.00175 0.183c-0.0255 0.431-0.19 0.842-0.514 1.21l-0.123 0.127-10.5 10.5c-0.78 0.774-2.04 0.774-2.82 0-0.785-0.778-0.785-2.04-6.3e-5 -2.82l7.28-7.22-29.3 7.2e-4c-1.1 0-2-0.89-2-1.99s0.897-1.99 2-1.99l29-7.19e-4 -7.05-6.99c-0.785-0.778-0.785-2.04 0-2.82 0.78-0.774 2.04-0.774 2.82 0z" fill="#ffffff"/></g></g></svg>
